<?xml version="1.0" encoding="UTF-8" standalone="no"?>
<svg 
    role="img" 
    xmlns="http://www.w3.org/2000/svg" 
    width="1000mm"
    height="1000mm"
    viewBox="0 0 1000 1000"
    style="max-width:1.6em; height: auto;">
    
    <path 
        id="path" 
        style="opacity:1;vector-effect:none;fill:#000000;fill-opacity:1;"
        d="M 500 0C 224 0 0 224 0 500C 0 776 224 1000 500 1000C 776 1000 1000 776 1000 500C 1000 224 776 0 500 0C 500 0 500 0 500 0M 500 75C 735 75 925 265 925 500C 925 735 735 925 500 925C 265 925 75 735 75 500C 75 265 265 75 500 75C 500 75 500 75 500 75 M 475 300C 475 300 525 300 525 300C 575 300 575 325 575 350C 575 400 550 575 550 575C 550 575 550 600 525 600C 525 600 475 600 475 600C 450 600 450 575 450 575C 450 575 425 400 425 350C 425 325 425 300 475 300C 475 300 475 300 475 300M 500 625C 520 625 539 633 553 647C 567 661 575 680 575 700C 575 741 541 775 500 775C 459 775 425 741 425 700C 425 680 433 661 447 647C 461 633 480 625 500 625C 500 625 500 625 500 625"
        transform="">
    </path>    
</svg>